<?xml version="1.0" encoding="utf-8"?>
<!-- Generator: Adobe Illustrator 19.1.0, SVG Export Plug-In . SVG Version: 6.00 Build 0)  -->
<svg version="1.1" id="Calque_1" xmlns="http://www.w3.org/2000/svg" xmlns:xlink="http://www.w3.org/1999/xlink" x="0px" y="0px"
	 viewBox="0 0 592.5 592.5" style="enable-background:new 0 0 592.5 592.5;" xml:space="preserve">
<style type="text/css">
	.st0{fill:#FFFFFF;}
	.st1{fill:#343434;}
	.st2{clip-path:url(#SVGID_2_);fill:none;stroke:#343434;stroke-width:3;stroke-miterlimit:10;}
	.st3{clip-path:url(#SVGID_4_);fill:#343434;}
	.st4{clip-path:url(#SVGID_6_);fill:none;stroke:#343434;stroke-width:3;stroke-miterlimit:10;}
	.st5{clip-path:url(#SVGID_8_);fill:#343434;}
</style>
<circle class="st0" cx="296.2" cy="296.2" r="296.2"/>
<g>
	<path class="st1" d="M148.4,326.7"/>
	<path class="st1" d="M340,458c-20.5,0-35.2-11-43.7-32.7c-2-5-3.4-10.1-4.3-14.7c33.2-2.2,32.3-32.8,31.1-34.7
		c-1.3-2-68.8-2.4-69.9,0c-1.1,2.3-1.9,32.5,31.1,34.7c-1,4.6-2.4,9.6-4.3,14.6c-8.5,21.7-23.2,32.8-43.7,32.8h-36.9v3h36.9
		c6.7,0,12.8-1.2,18.4-3.4v36.3c0,0.5-0.1,1.9,1,3.2c1,1.1,2.5,1.7,4.5,1.7h26.4h1.5H316c2,0,3.6-0.6,4.5-1.7c1-1.2,1-2.7,1-3.2
		v-36.3c5.6,2.3,11.7,3.4,18.4,3.4h36.9v-3H340z M318.6,494.2c0,0,0.1,0.6-0.3,0.9c-0.4,0.4-1.2,0.6-2.2,0.6h-26.4v-22.1h-3v22.1
		h-26.4c-1.1,0-1.9-0.2-2.2-0.6c-0.3-0.4-0.3-0.9-0.3-0.9l0-38c10.9-5.5,19.5-15.5,25.1-29.9c2.1-5.4,3.6-10.8,4.6-15.6
		c0.3,0,0.6,0,0.9,0c0.2,0,0.5,0,0.7,0c1,4.8,2.5,10.2,4.6,15.6c5.6,14.4,14.1,24.4,25.1,29.9V494L318.6,494.2z"/>
	<g>
		<g>
			<defs>
				<polygon id="SVGID_1_" points="223.7,146.8 94.6,216.3 90.5,145 114.2,98 				"/>
			</defs>
			<clipPath id="SVGID_2_">
				<use xlink:href="#SVGID_1_"  style="overflow:visible;"/>
			</clipPath>
			<circle class="st2" cx="152.5" cy="174.1" r="45"/>
		</g>
		<g>
			<defs>
				<polygon id="SVGID_3_" points="223.7,146.8 94.6,216.3 90.5,145 114.2,98 				"/>
			</defs>
			<clipPath id="SVGID_4_">
				<use xlink:href="#SVGID_3_"  style="overflow:visible;"/>
			</clipPath>
			<circle class="st3" cx="152.5" cy="174.1" r="19.9"/>
		</g>
	</g>
	<g>
		<g>
			<defs>
				<polygon id="SVGID_5_" points="485.7,218.6 356.6,149 413.9,106.4 466.2,100.3 				"/>
			</defs>
			<clipPath id="SVGID_6_">
				<use xlink:href="#SVGID_5_"  style="overflow:visible;"/>
			</clipPath>
			<path class="st4" d="M437.8,216.9c-23.6,7.8-49-5-56.8-28.6c-7.8-23.6,5-49,28.6-56.8c23.6-7.8,49,5,56.8,28.6
				C474.2,183.7,461.4,209.1,437.8,216.9z"/>
		</g>
		<g>
			<defs>
				<polygon id="SVGID_7_" points="485.7,218.6 356.6,149 413.9,106.4 466.2,100.3 				"/>
			</defs>
			<clipPath id="SVGID_8_">
				<use xlink:href="#SVGID_7_"  style="overflow:visible;"/>
			</clipPath>
			<path class="st5" d="M429.9,193.1c-10.4,3.4-21.6-2.2-25.1-12.6c-3.4-10.4,2.2-21.6,12.6-25.1c10.4-3.4,21.6,2.2,25.1,12.6
				C446,178.4,440.3,189.6,429.9,193.1z"/>
		</g>
	</g>
	<path class="st1" d="M199.4,297.2c-21.8,0-32.1,29.5-32.1,29.5s31.3-47.6,64.1,0C231.4,326.7,221.1,297.2,199.4,297.2z"/>
	<path class="st1" d="M367,294.7c-21.8,0-32.1,29.5-32.1,29.5s31.3-47.6,64.1,0C399,324.2,388.7,294.7,367,294.7z"/>
	<path class="st1" d="M533.6,280.5c-3.3-18.9-16.1-27.6-29.3-31.5c21.4-13.4,37-51.9,3.3-59.9c-33.1-7.9-48.6,24.3-53.6,37.8
		C249.8,160.8,103.6,241,103.6,241c-1.5,0.8,8.8,34,9.3,35.5c0.5,1.6,1.3,1.5,1.3,1.5c186.4-43.2,302.2-7,330.1-3.3
		c-0.6,29.9,11.3,72.9-15.5,118c0,0-3.2,3.1-1,5.7c2.3,2.6,15.9,11.6,15.9,11.6s2.1,0.9,4.3-3.2c1.8-3.5,18.7-64.3,15-98.9
		c18.6,31.8,42.3,71,33.4,123.6c0,0-2.7,5.3,1.9,7.3c4.7,2,29,6,29,6s3.4,0,4.1-6c0.6-5.3-12.4-94.6-40.6-131.1
		C512,314,538.5,308.2,533.6,280.5z M475.7,275.5c-3.2-9.2-5.9-6.3-5.9-6.3l-2-4.7l9.6-4.1c0,0,19.8-3.1,22.5,12.2
		C502.5,287.8,478.8,284.7,475.7,275.5z M466.8,232.8c0,0,5-19.4,20.1-15.8c15.1,3.6,2.9,24.1-6.8,23.4c-9.7-0.7-8.1,2.9-8.1,2.9
		h-5.1V232.8z M288.1,247.6c-10.1,0-18.3-8.2-18.3-18.3c0-10.1,8.2-18.3,18.3-18.3s18.3,8.2,18.3,18.3
		C306.5,239.3,298.2,247.6,288.1,247.6z"/>
</g>
</svg>
